<?xml version="1.0" standalone="no"?>
<!DOCTYPE svg PUBLIC "-//W3C//DTD SVG 20010904//EN"
 "http://www.w3.org/TR/2001/REC-SVG-20010904/DTD/svg10.dtd">
<svg version="1.0" xmlns="http://www.w3.org/2000/svg"
 width="541.000000pt" height="80.000000pt" viewBox="0 0 541.000000 80.000000"
 preserveAspectRatio="xMidYMid meet">

<g transform="translate(0.000000,80.000000) scale(0.100000,-0.100000)"
fill="#f92e9e" stroke="none">
<path d="M1975 745 c-81 -28 -134 -126 -122 -224 12 -100 103 -230 272 -389
88 -82 101 -91 114 -77 13 13 3 27 -95 123 -121 119 -179 190 -218 268 -64
128 -5 264 116 264 37 0 107 -40 147 -84 14 -14 30 -26 36 -26 6 0 22 12 36
26 43 47 110 84 152 84 126 0 178 -136 109 -284 -39 -84 -94 -152 -143 -177
-64 -32 -150 -21 -188 25 -15 17 -47 21 -55 7 -10 -15 36 -63 78 -82 90 -41
180 -16 261 73 108 118 151 257 111 363 -28 72 -105 125 -184 125 -27 0 -105
-39 -146 -73 l-30 -24 -45 35 c-82 63 -130 74 -206 47z"/>
<path d="M30 411 l0 -191 30 0 30 0 0 65 0 65 58 0 c65 0 96 13 125 52 39 53
16 151 -42 178 -14 7 -65 15 -113 18 l-88 5 0 -192z m190 109 c26 -26 25 -68
-2 -97 -17 -18 -32 -23 -75 -23 l-53 0 0 70 0 70 55 0 c42 0 60 -5 75 -20z"/>
<path d="M350 410 l0 -190 110 0 110 0 0 25 c0 25 -1 25 -80 25 l-80 0 0 165
0 165 -30 0 -30 0 0 -190z"/>
<path d="M630 460 c0 -100 4 -151 14 -175 42 -100 210 -100 252 0 10 24 14 75
14 175 l0 140 -24 0 -24 0 -4 -146 c-3 -145 -3 -146 -31 -170 -34 -29 -76 -31
-108 -5 -23 18 -24 27 -29 168 l-5 148 -27 3 -28 3 0 -141z"/>
<path d="M1029 585 c-53 -29 -62 -111 -16 -153 12 -11 42 -28 67 -38 71 -28
90 -43 90 -74 0 -63 -80 -82 -131 -30 -25 24 -34 28 -50 20 -24 -13 -24 -21 1
-52 28 -36 72 -51 132 -46 66 7 108 48 108 106 0 48 -26 77 -99 110 -70 31
-91 49 -91 78 0 47 71 59 118 19 26 -22 31 -23 48 -10 18 14 17 16 -18 50 -32
30 -44 35 -85 35 -27 -1 -60 -7 -74 -15z"/>
<path d="M1290 411 l0 -191 30 0 30 0 0 80 0 80 90 0 90 0 0 -80 c0 -79 0 -80
25 -80 l25 0 0 190 0 190 -25 0 c-25 0 -25 -1 -25 -85 l0 -85 -90 0 -89 0 -3
83 c-3 81 -3 82 -30 85 l-28 3 0 -190z"/>
<path d="M2860 410 l0 -190 30 0 30 0 0 64 0 64 71 4 c65 3 74 6 100 36 24 26
29 41 29 82 0 91 -59 129 -197 130 l-63 0 0 -190z m184 114 c27 -27 31 -63 9
-92 -17 -23 -29 -27 -77 -30 l-56 -3 0 71 0 70 54 0 c36 0 60 -5 70 -16z"/>
<path d="M3312 558 c-11 -24 -47 -106 -82 -183 -34 -77 -64 -143 -67 -147 -2
-5 9 -8 26 -8 26 0 34 7 51 40 l20 40 96 0 95 0 17 -40 c15 -34 21 -40 48 -40
l32 0 -86 190 c-75 167 -88 190 -108 190 -17 0 -28 -10 -42 -42z m82 -127 c20
-45 36 -85 36 -87 0 -2 -34 -4 -75 -4 -41 0 -75 4 -75 9 0 5 12 35 26 67 14
33 30 70 35 83 5 13 11 22 14 20 2 -3 20 -42 39 -88z"/>
<path d="M3600 410 l0 -190 25 0 c24 0 25 2 25 65 l0 65 39 0 c37 0 42 -4 86
-65 39 -56 50 -65 76 -65 l31 0 -47 66 -48 66 26 22 c52 44 62 110 24 167 -27
40 -78 57 -174 58 l-63 1 0 -190z m182 113 c11 -10 18 -30 18 -54 0 -50 -27
-69 -97 -69 l-53 0 0 70 0 70 57 0 c38 0 62 -5 75 -17z"/>
<path d="M4076 573 c-12 -24 -137 -301 -153 -341 -3 -8 5 -12 24 -12 25 0 33
6 48 40 l18 40 97 0 97 0 18 -40 c15 -33 23 -40 47 -40 15 0 28 2 28 4 0 6
-130 296 -151 338 -23 46 -52 50 -73 11z m104 -220 c0 -10 -19 -13 -71 -13
-70 0 -71 0 -65 24 3 13 20 55 37 92 l30 69 35 -79 c19 -44 34 -85 34 -93z"/>
<path d="M4358 594 c-5 -4 -8 -90 -8 -192 l0 -184 98 4 c85 3 103 6 135 28 80
55 105 162 57 250 -36 63 -87 89 -192 97 -46 3 -86 2 -90 -3z m190 -74 c58
-36 78 -116 44 -180 -23 -44 -73 -70 -134 -70 l-48 0 0 135 0 135 53 0 c35 0
63 -7 85 -20z"/>
<path d="M4730 410 l0 -190 25 0 25 0 0 190 0 190 -25 0 -25 0 0 -190z"/>
<path d="M4899 585 c-53 -29 -62 -111 -16 -153 12 -11 42 -28 67 -38 71 -28
90 -43 90 -74 0 -63 -80 -82 -131 -30 -25 24 -34 28 -50 20 -26 -14 -24 -23
12 -59 36 -37 64 -45 125 -38 65 7 104 46 104 104 0 53 -20 75 -99 110 -67 31
-91 50 -91 74 0 50 70 65 118 24 26 -22 31 -23 48 -10 18 14 17 16 -18 50 -32
30 -44 35 -85 35 -27 -1 -60 -7 -74 -15z"/>
<path d="M5160 410 l0 -190 115 0 115 0 0 25 c0 25 -1 25 -85 25 l-85 0 0 55
0 55 65 0 c63 0 65 1 65 25 0 24 -2 25 -65 25 l-65 0 0 55 0 54 83 3 c80 3 82
4 82 28 l0 25 -112 3 -113 3 0 -191z"/>
<path d="M2204 487 c-3 -8 -4 -32 -2 -53 2 -31 7 -39 23 -39 17 0 20 7 20 50
0 39 -4 50 -18 53 -9 2 -20 -3 -23 -11z"/>
<path d="M2290 445 c0 -48 2 -55 20 -55 18 0 20 7 20 55 0 48 -2 55 -20 55
-18 0 -20 -7 -20 -55z"/>
</g>
</svg>