<?xml version="1.0" standalone="no"?>
<!DOCTYPE svg PUBLIC "-//W3C//DTD SVG 20010904//EN"
 "http://www.w3.org/TR/2001/REC-SVG-20010904/DTD/svg10.dtd">
<svg version="1.0" xmlns="http://www.w3.org/2000/svg"
 width="57.000000pt" height="52.000000pt" viewBox="0 0 57.000000 52.000000"
 preserveAspectRatio="xMidYMid meet">

<g transform="translate(0.000000,52.000000) scale(0.100000,-0.100000)"
fill="#f92e9e" stroke="none">
<path d="M83 471 c-29 -14 -48 -31 -62 -60 -47 -91 -13 -176 124 -320 52 -53
97 -92 105 -89 8 2 -20 39 -79 101 -135 144 -168 227 -121 304 36 60 107 61
181 2 28 -22 45 -30 54 -23 69 51 98 66 130 66 101 0 134 -112 68 -233 -59
-110 -139 -145 -222 -98 -43 24 -63 21 -41 -6 57 -68 176 -55 245 27 41 48 85
147 85 191 0 69 -44 128 -110 147 -29 8 -42 6 -85 -15 -27 -13 -57 -30 -65
-36 -12 -9 -26 -4 -65 20 -68 41 -92 45 -142 22z"/>
<path d="M325 280 c-7 -23 2 -60 16 -60 12 0 12 67 0 75 -5 3 -12 -4 -16 -15z"/>
<path d="M260 260 c0 -16 5 -30 10 -30 6 0 10 14 10 30 0 17 -4 30 -10 30 -5
0 -10 -13 -10 -30z"/>
</g>
</svg>
